<svg width="486" height="484" viewBox="0 0 486 484" fill="none" xmlns="http://www.w3.org/2000/svg">
<g clip-path="url(#clip0)">
<rect width="485.834" height="483.5" rx="15" fill="#F4F4F4"/>
<path d="M275.315 142.097H195.574C193.828 142.103 192.104 141.71 190.533 140.948C188.962 140.187 187.586 139.077 186.508 137.704V137.704C185.411 136.317 184.645 134.699 184.268 132.971C183.89 131.244 183.912 129.453 184.332 127.736C191.681 96.9528 191.681 64.872 184.331 34.0889C183.912 32.3714 183.89 30.5809 184.268 28.8537C184.645 27.1265 185.411 25.5081 186.508 24.1216C187.585 22.748 188.962 21.6384 190.533 20.877C192.104 20.1157 193.828 19.7227 195.574 19.7281H275.315C278.069 19.736 280.729 20.7209 282.824 22.5074C284.919 24.294 286.312 26.7661 286.754 29.4835C292.002 63.5688 292.002 98.2565 286.754 132.342C286.312 135.059 284.919 137.531 282.824 139.318C280.729 141.104 278.069 142.089 275.315 142.097V142.097Z" fill="#E6E6E6"/>
<path d="M195.574 25.7281C194.735 25.7252 193.908 25.9137 193.153 26.279C192.398 26.6444 191.737 27.177 191.219 27.8365C190.686 28.5121 190.314 29.3004 190.132 30.1414C189.949 30.9825 189.961 31.8541 190.166 32.69C197.735 64.3929 197.735 97.4323 190.166 129.135C189.961 129.971 189.949 130.842 190.132 131.683C190.314 132.524 190.686 133.312 191.219 133.988L191.22 133.988C191.737 134.648 192.398 135.181 193.153 135.546C193.907 135.912 194.735 136.1 195.574 136.097H275.315C276.637 136.098 277.917 135.629 278.926 134.774C279.935 133.919 280.607 132.734 280.824 131.43C285.979 97.9491 285.979 63.8762 280.824 30.395C280.607 29.0908 279.935 27.9058 278.926 27.0511C277.917 26.1965 276.637 25.7276 275.315 25.728L195.574 25.7281Z" fill="white"/>
<path d="M257.914 54.5788H216.069C214.478 54.5771 212.953 53.9444 211.828 52.8196C210.704 51.6948 210.071 50.1697 210.069 48.579V46.2344C210.071 44.6437 210.704 43.1186 211.828 41.9938C212.953 40.869 214.478 40.2364 216.069 40.2346H257.914C259.505 40.2364 261.03 40.869 262.155 41.9938C263.279 43.1186 263.912 44.6437 263.914 46.2344V48.5791C263.912 50.1698 263.279 51.6948 262.155 52.8196C261.03 53.9444 259.505 54.5771 257.914 54.5788Z" fill="#7A9ACC"/>
<path d="M257.914 84.2045H216.069C214.478 84.2028 212.953 83.5701 211.828 82.4453C210.704 81.3205 210.071 79.7954 210.069 78.2047V75.8601C210.071 74.2694 210.704 72.7443 211.828 71.6195C212.953 70.4947 214.478 69.8621 216.069 69.8604H257.914C259.505 69.8621 261.03 70.4947 262.155 71.6195C263.279 72.7443 263.912 74.2694 263.914 75.8601V78.2047C263.912 79.7954 263.279 81.3205 262.155 82.4453C261.03 83.5701 259.505 84.2028 257.914 84.2045Z" fill="#7A9ACC"/>
<path d="M257.914 113.83H216.069C214.478 113.828 212.953 113.196 211.828 112.071C210.704 110.946 210.071 109.421 210.069 107.83V105.486C210.071 103.895 210.704 102.37 211.828 101.245C212.953 100.12 214.478 99.4878 216.069 99.4861H257.914C259.505 99.4878 261.03 100.12 262.155 101.245C263.279 102.37 263.912 103.895 263.914 105.486V107.83C263.912 109.421 263.279 110.946 262.155 112.071C261.03 113.196 259.505 113.828 257.914 113.83V113.83Z" fill="#7A9ACC"/>
<path d="M457.315 205.097H377.574C375.828 205.103 374.104 204.71 372.533 203.948C370.962 203.187 369.586 202.077 368.508 200.704V200.704C367.411 199.317 366.645 197.699 366.268 195.971C365.89 194.244 365.912 192.453 366.332 190.736C373.681 159.953 373.681 127.872 366.331 97.0889C365.912 95.3714 365.89 93.5809 366.268 91.8537C366.645 90.1265 367.411 88.5081 368.508 87.1216C369.585 85.748 370.962 84.6384 372.533 83.877C374.104 83.1157 375.828 82.7227 377.574 82.7281H457.315C460.069 82.736 462.729 83.7209 464.824 85.5074C466.919 87.294 468.312 89.7661 468.754 92.4835C474.002 126.569 474.002 161.257 468.754 195.342C468.312 198.059 466.919 200.531 464.824 202.318C462.729 204.104 460.069 205.089 457.315 205.097Z" fill="#E6E6E6"/>
<path d="M377.574 88.7281C376.735 88.7252 375.908 88.9137 375.153 89.279C374.398 89.6444 373.737 90.177 373.219 90.8365C372.686 91.5121 372.314 92.3004 372.132 93.1414C371.949 93.9825 371.961 94.8541 372.166 95.69C379.735 127.393 379.735 160.432 372.166 192.135C371.961 192.971 371.949 193.842 372.132 194.683C372.314 195.524 372.686 196.312 373.219 196.988L373.22 196.988C373.737 197.648 374.398 198.181 375.153 198.546C375.907 198.912 376.735 199.1 377.574 199.097H457.315C458.637 199.098 459.917 198.629 460.926 197.774C461.935 196.919 462.607 195.734 462.824 194.43C467.979 160.949 467.979 126.876 462.824 93.3951C462.607 92.0908 461.935 90.9058 460.926 90.0511C459.917 89.1965 458.637 88.7276 457.315 88.728L377.574 88.7281Z" fill="white"/>
<path d="M311.459 290.597H231.717C229.896 290.603 228.097 290.193 226.458 289.398C224.819 288.604 223.383 287.446 222.259 286.013C221.115 284.568 220.316 282.88 219.922 281.079C219.529 279.277 219.552 277.41 219.989 275.619C227.32 244.913 227.32 212.912 219.988 182.206C219.552 180.415 219.529 178.548 219.922 176.746C220.316 174.945 221.115 173.258 222.259 171.812C223.383 170.379 224.819 169.221 226.458 168.427C228.097 167.633 229.896 167.223 231.717 167.228H311.459C314.331 167.237 317.107 168.265 319.293 170.129C321.478 171.993 322.931 174.572 323.392 177.407C328.648 211.543 328.648 246.282 323.392 280.418C322.931 283.253 321.478 285.832 319.293 287.697C317.107 289.561 314.331 290.589 311.459 290.597V290.597Z" fill="#F2F2F2"/>
<path d="M439.914 132.579H398.069C396.478 132.577 394.953 131.944 393.828 130.82C392.704 129.695 392.071 128.17 392.069 126.579V124.234C392.071 122.644 392.704 121.119 393.828 119.994C394.953 118.869 396.478 118.236 398.069 118.235H439.914C441.505 118.236 443.03 118.869 444.155 119.994C445.279 121.119 445.912 122.644 445.914 124.234V126.579C445.912 128.17 445.279 129.695 444.155 130.82C443.03 131.944 441.505 132.577 439.914 132.579V132.579Z" fill="#7A9ACC"/>
<path d="M439.914 162.204H398.069C396.478 162.203 394.953 161.57 393.828 160.445C392.704 159.32 392.071 157.795 392.069 156.205V153.86C392.071 152.269 392.704 150.744 393.828 149.62C394.953 148.495 396.478 147.862 398.069 147.86H439.914C441.505 147.862 443.03 148.495 444.155 149.62C445.279 150.744 445.912 152.269 445.914 153.86V156.205C445.912 157.795 445.279 159.32 444.155 160.445C443.03 161.57 441.505 162.203 439.914 162.204V162.204Z" fill="#7A9ACC"/>
<path d="M271.811 251.5C284.514 251.5 294.811 241.203 294.811 228.5C294.811 215.797 284.514 205.5 271.811 205.5C259.109 205.5 248.811 215.797 248.811 228.5C248.811 241.203 259.109 251.5 271.811 251.5Z" fill="white"/>
<path d="M282.811 225.5H274.811V217.5C274.811 216.704 274.495 215.941 273.932 215.379C273.37 214.816 272.607 214.5 271.811 214.5C271.015 214.5 270.252 214.816 269.69 215.379C269.127 215.941 268.811 216.704 268.811 217.5V225.5H260.811C260.015 225.5 259.252 225.816 258.69 226.379C258.127 226.941 257.811 227.704 257.811 228.5C257.811 229.296 258.127 230.059 258.69 230.621C259.252 231.184 260.015 231.5 260.811 231.5H268.811V239.5C268.811 240.296 269.127 241.059 269.69 241.621C270.252 242.184 271.015 242.5 271.811 242.5C272.607 242.5 273.37 242.184 273.932 241.621C274.495 241.059 274.811 240.296 274.811 239.5V231.5H282.811C283.607 231.5 284.37 231.184 284.932 230.621C285.495 230.059 285.811 229.296 285.811 228.5C285.811 227.704 285.495 226.941 284.932 226.379C284.37 225.816 283.607 225.5 282.811 225.5V225.5Z" fill="#E6E6E6"/>
<path d="M255.668 31H213.668C212.475 30.9987 211.331 30.5241 210.487 29.6805C209.643 28.8369 209.169 27.6931 209.168 26.5V18.5C209.169 17.3069 209.643 16.1631 210.487 15.3195C211.331 14.4759 212.475 14.0013 213.668 14H255.668C256.861 14.0013 258.004 14.4759 258.848 15.3195C259.692 16.1631 260.166 17.3069 260.168 18.5V26.5C260.166 27.6931 259.692 28.8369 258.848 29.6805C258.004 30.5241 256.861 30.9987 255.668 31Z" fill="#CCCCCC"/>
<path d="M439.668 95H397.668C396.475 94.9987 395.331 94.5241 394.487 93.6805C393.643 92.8369 393.169 91.6931 393.168 90.5V82.5C393.169 81.3069 393.643 80.1631 394.487 79.3195C395.331 78.4759 396.475 78.0013 397.668 78H439.668C440.861 78.0013 442.004 78.4759 442.848 79.3195C443.692 80.1631 444.166 81.3069 444.168 82.5V90.5C444.166 91.6931 443.692 92.8369 442.848 93.6805C442.004 94.5241 440.861 94.9987 439.668 95Z" fill="#CCCCCC"/>
<path d="M88.596 471.061H100.856L104.689 423.773H88.594L88.596 471.061Z" fill="#FFB8B8"/>
<path d="M85.4692 467.058L109.613 467.057H109.614C111.635 467.057 113.635 467.455 115.502 468.228C117.369 469.002 119.065 470.135 120.494 471.564C121.923 472.993 123.056 474.689 123.829 476.555C124.602 478.422 125 480.423 125 482.444V482.944L85.4699 482.945L85.4692 467.058Z" fill="#2F2E41"/>
<path d="M22.596 471.061H34.856L40.689 423.773H22.594L22.596 471.061Z" fill="#FFB8B8"/>
<path d="M19.4692 467.058L43.613 467.057H43.614C45.6346 467.057 47.6354 467.455 49.5021 468.228C51.3689 469.002 53.0651 470.135 54.4939 471.564C55.9227 472.993 57.056 474.689 57.8293 476.555C58.6025 478.422 59.0005 480.423 59.0005 482.444V482.944L19.4699 482.945L19.4692 467.058Z" fill="#2F2E41"/>
<path d="M24.7712 456.123C23.5206 456.122 22.3158 455.652 21.3962 454.804V454.804C20.9026 454.354 20.505 453.808 20.2273 453.201C19.9497 452.593 19.7977 451.935 19.7805 451.267L14.8638 275.054L84.675 292.506L106.215 357.124C108.992 365.436 110.195 374.194 109.76 382.948L107.085 445.584C107.024 446.868 106.471 448.078 105.541 448.964C104.611 449.85 103.376 450.344 102.091 450.343H90.382C89.1734 450.338 88.0072 449.898 87.0971 449.103C86.187 448.307 85.5941 447.211 85.4272 446.014L77.0583 376.872C76.327 371.478 74.4401 366.306 71.5266 361.708L55.0571 335.632C54.9469 335.458 54.7857 335.322 54.5954 335.243C54.4051 335.164 54.195 335.145 53.9939 335.19C53.7928 335.235 53.6105 335.341 53.4718 335.494C53.3332 335.646 53.245 335.838 53.2194 336.042L40.2948 451.13C40.1561 452.298 39.61 453.379 38.7526 454.183C37.8952 454.987 36.7816 455.463 35.6078 455.527L25.0558 456.114C24.9609 456.119 24.8662 456.123 24.7712 456.123Z" fill="#2F2E41"/>
<path d="M73.0577 160.967C86.6224 160.967 97.6187 149.971 97.6187 136.406C97.6187 122.841 86.6224 111.845 73.0577 111.845C59.493 111.845 48.4966 122.841 48.4966 136.406C48.4966 149.971 59.493 160.967 73.0577 160.967Z" fill="#FFB8B8"/>
<path d="M84.3405 299.672C83.9179 299.672 83.497 299.618 83.0876 299.513H83.0868L13.8226 281.753C12.5842 281.436 11.5144 280.657 10.8331 279.575C10.1518 278.493 9.9108 277.192 10.1597 275.938L26.0668 190.247C27.0579 185.294 29.2363 180.655 32.415 176.729C35.5938 172.803 39.6778 169.707 44.3166 167.708C48.8365 165.707 53.7793 164.85 58.7088 165.212C63.6383 165.574 68.4029 167.144 72.5822 169.783C73.5519 170.388 74.5287 171.047 75.4848 171.744C79.3337 174.583 82.4724 178.275 84.6549 182.531C86.8373 186.787 88.0041 191.491 88.0637 196.273L89.3285 294.602C89.337 295.263 89.2144 295.919 88.9678 296.533C88.7212 297.147 88.3554 297.705 87.8916 298.177C87.4278 298.648 86.8752 299.023 86.2657 299.28C85.6562 299.537 85.0019 299.67 84.3405 299.672V299.672Z" fill="#6C63FF"/>
<path d="M20.9493 300.68C20.1231 299.464 19.5735 298.082 19.3392 296.63C19.105 295.179 19.1918 293.694 19.5936 292.28C19.9954 290.866 20.7023 289.557 21.6646 288.446C22.6269 287.334 23.8212 286.448 25.1633 285.848L22.0825 250.246L38.4086 259.094L38.8312 291.546C39.6895 293.867 39.6664 296.423 38.7663 298.729C37.8661 301.034 36.1515 302.93 33.9474 304.055C31.7432 305.181 29.2026 305.46 26.807 304.837C24.4114 304.215 22.3272 302.736 20.9494 300.68H20.9493Z" fill="#FFB8B8"/>
<path d="M26.7819 281.139C26.3213 281.139 25.8625 281.08 25.4162 280.966C24.4564 280.721 23.5805 280.222 22.8813 279.52C22.1821 278.818 21.6856 277.941 21.4443 276.98L13.4211 245.096C10.6172 233.96 11.9538 222.185 17.1823 211.961L33.9912 179.08C35.0537 175.143 37.621 171.781 41.1395 169.72C44.6579 167.659 48.8456 167.063 52.7993 168.061C54.7699 168.559 56.6221 169.442 58.2486 170.661C59.875 171.88 61.2433 173.41 62.2741 175.162C63.3262 176.938 64.0142 178.907 64.2981 180.952C64.5821 182.997 64.4564 185.078 63.9282 187.075L40.0007 240.58L40.2849 272.616C40.2922 273.746 39.9524 274.851 39.3114 275.782C38.6703 276.713 37.7589 277.425 36.7004 277.821L28.6931 280.794C28.0816 281.022 27.4344 281.139 26.7819 281.139Z" fill="#6C63FF"/>
<path d="M141.318 287.585C139.857 287.418 138.451 286.933 137.198 286.163C135.945 285.394 134.876 284.36 134.067 283.133C133.257 281.906 132.726 280.516 132.512 279.062C132.297 277.607 132.404 276.124 132.825 274.715L103.831 253.826L121.188 247.224L146.06 268.073C148.379 268.937 150.301 270.622 151.461 272.808C152.622 274.994 152.94 277.53 152.355 279.935C151.771 282.34 150.324 284.447 148.29 285.857C146.256 287.267 143.775 287.882 141.318 287.585H141.318Z" fill="#FFB8B8"/>
<path d="M126.14 272.33C125.285 272.33 124.442 272.131 123.677 271.749L94.2781 257.032C84.0094 251.892 75.9567 243.198 71.6174 232.566L57.6602 198.376C55.3697 195.002 54.4968 190.863 55.2296 186.852C55.9625 182.84 58.2424 179.278 61.5779 176.932C63.2444 175.76 65.1275 174.931 67.1174 174.495C69.1073 174.058 71.1642 174.022 73.1682 174.388C75.1958 174.753 77.1309 175.516 78.8613 176.634C80.5917 177.752 82.0831 179.202 83.249 180.9L108.194 233.94L132.66 254.622C133.521 255.354 134.138 256.332 134.425 257.426C134.712 258.519 134.657 259.674 134.267 260.734L131.297 268.743C130.909 269.793 130.209 270.699 129.29 271.339C128.366 271.984 127.267 272.331 126.14 272.33V272.33Z" fill="#6C63FF"/>
<path d="M67.9002 161.343C69.2052 161.914 71.8775 151.516 70.6804 149.436C68.9002 146.343 69.0054 146.365 67.8236 144.319C66.6418 142.273 66.3774 139.472 67.9078 137.672C69.4382 135.871 72.9798 136.11 73.6782 138.367C73.2289 134.08 77.4701 130.633 81.6712 129.664C85.8723 128.696 90.3037 129.297 94.5279 128.435C99.4303 127.435 104.531 123.325 102.575 117.934C102.239 117.037 101.737 116.211 101.094 115.5C98.8341 112.959 95.6729 111.874 92.582 110.825C86.152 108.643 79.546 106.433 72.7599 106.674C67.1685 106.966 61.7836 108.882 57.2642 112.187C52.7448 115.492 49.2868 120.043 47.3136 125.283C46.8459 126.594 46.4836 127.94 46.2301 129.308C43.9009 141.833 51.1738 154.186 62.9864 158.956L67.9002 161.343Z" fill="#2F2E41"/>
<path opacity="0.2" d="M38.9 273.343L39.457 240.414L56.9 205.343L42.9 241.343L38.9 273.343Z" fill="black"/>
<path d="M197.077 355.982L123.439 325.387C121.825 324.722 120.384 323.698 119.225 322.392C118.066 321.086 117.221 319.533 116.753 317.851C116.272 316.15 116.185 314.361 116.499 312.621C116.814 310.882 117.521 309.236 118.567 307.811C137.165 282.204 149.474 252.578 154.498 221.331C154.77 219.585 155.437 217.923 156.448 216.472C157.459 215.022 158.787 213.822 160.332 212.962C161.854 212.107 163.551 211.61 165.294 211.51C167.037 211.41 168.78 211.708 170.39 212.383L244.028 242.979C246.568 244.042 248.647 245.973 249.896 248.426C251.145 250.88 251.483 253.697 250.849 256.376C242.617 289.867 229.308 321.9 211.384 351.363C209.932 353.702 207.698 355.451 205.078 356.297C202.458 357.143 199.623 357.031 197.077 355.982Z" fill="#E6E6E6"/>
<path d="M168.088 217.924C167.315 217.6 166.478 217.456 165.641 217.504C164.804 217.552 163.989 217.79 163.258 218.2C162.506 218.62 161.86 219.205 161.369 219.912C160.877 220.618 160.554 221.428 160.422 222.278C155.248 254.459 142.572 284.97 123.418 311.342C122.908 312.035 122.563 312.835 122.409 313.682C122.255 314.529 122.296 315.399 122.529 316.227L122.529 316.228C122.754 317.036 123.16 317.781 123.717 318.408C124.273 319.035 124.966 319.527 125.741 319.846L199.379 350.442C200.6 350.949 201.962 351.007 203.221 350.605C204.481 350.203 205.556 349.367 206.257 348.246C223.864 319.305 236.937 287.84 245.023 254.943C245.323 253.655 245.156 252.303 244.553 251.127C243.949 249.95 242.947 249.027 241.726 248.52L168.088 217.924Z" fill="white"/>
<path d="M207.297 286.031L168.655 269.976C167.186 269.364 166.021 268.195 165.414 266.725C164.807 265.254 164.807 263.603 165.416 262.134L166.316 259.968C166.928 258.5 168.097 257.335 169.567 256.727C171.038 256.12 172.689 256.121 174.158 256.73L212.801 272.785C214.269 273.397 215.435 274.566 216.042 276.037C216.649 277.507 216.648 279.158 216.039 280.628L215.14 282.793C214.528 284.261 213.358 285.427 211.888 286.034C210.418 286.641 208.767 286.64 207.297 286.031V286.031Z" fill="#7A9ACC"/>
<path d="M195.93 313.39L157.288 297.335C155.819 296.723 154.654 295.553 154.047 294.083C153.44 292.613 153.441 290.962 154.049 289.492L154.949 287.327C155.561 285.859 156.73 284.693 158.2 284.086C159.671 283.479 161.322 283.48 162.791 284.088L201.434 300.144C202.902 300.756 204.068 301.925 204.675 303.395C205.282 304.865 205.281 306.517 204.672 307.986L203.773 310.151C203.161 311.62 201.992 312.785 200.521 313.392C199.051 314 197.4 313.999 195.93 313.39V313.39Z" fill="#7A9ACC"/>
<path d="M222.781 247.582C222.203 247.581 221.63 247.469 221.094 247.251L182.156 231.509C181.05 231.06 180.168 230.192 179.702 229.093C179.236 227.995 179.225 226.757 179.671 225.65L182.669 218.233C183.117 217.127 183.985 216.244 185.084 215.778C186.183 215.312 187.422 215.301 188.528 215.748L227.466 231.491C228.572 231.94 229.454 232.808 229.92 233.906C230.386 235.005 230.397 236.243 229.951 237.35L226.953 244.767C226.616 245.597 226.039 246.309 225.296 246.81C224.553 247.311 223.678 247.58 222.781 247.582V247.582Z" fill="#CCCCCC"/>
<path d="M141 483.5H1C0.734784 483.5 0.480444 483.395 0.292908 483.207C0.105371 483.02 0 482.765 0 482.5C0 482.235 0.105371 481.98 0.292908 481.793C0.480444 481.605 0.734784 481.5 1 481.5H141C141.265 481.5 141.52 481.605 141.707 481.793C141.895 481.98 142 482.235 142 482.5C142 482.765 141.895 483.02 141.707 483.207C141.52 483.395 141.265 483.5 141 483.5Z" fill="#CCCCCC"/>
</g>
<defs>
<clipPath id="clip0">
<rect width="485.834" height="483.5" rx="15" fill="white"/>
</clipPath>
</defs>
</svg>
